<?xml version="1.0" standalone="no"?>
<!DOCTYPE svg PUBLIC "-//W3C//DTD SVG 20010904//EN"
 "http://www.w3.org/TR/2001/REC-SVG-20010904/DTD/svg10.dtd">
<svg version="1.0" xmlns="http://www.w3.org/2000/svg"
 width="120.000000pt" height="120.000000pt" viewBox="0 0 120.000000 120.000000"
 preserveAspectRatio="xMidYMid meet">
<metadata>
Created by potrace 1.10, written by Peter Selinger 2001-2011
</metadata>
<g transform="translate(0.000000,120.000000) scale(0.050000,-0.050000)"
fill="#000000" stroke="none">
<path d="M281 2056 c-68 -73 -50 -131 149 -465 226 -381 221 -326 42 -427
-255 -145 -265 -206 -78 -482 2 -4 28 8 57 27 29 19 55 31 57 28 3 -4 61 -86
130 -182 221 -310 202 -310 921 12 553 248 610 283 569 348 -19 30 -48 34
-195 28 -210 -9 -222 -3 -382 206 -118 155 -121 169 -42 197 37 13 -114 218
-182 246 -78 33 -114 22 -297 -94 -73 -45 -135 -79 -139 -75 -4 4 -85 138
-181 297 -241 402 -314 459 -429 336z m1167 -1019 c86 -115 158 -190 194 -204
77 -29 73 -42 -19 -70 -116 -35 -165 -28 -225 29 -30 29 -64 46 -76 39 -42
-26 -22 -92 39 -128 l60 -37 -103 -43 -102 -43 -58 62 c-35 38 -70 58 -88 51
-42 -16 -37 -60 10 -103 22 -20 40 -42 40 -50 0 -16 -216 -92 -226 -79 -83
102 -254 341 -253 353 1 14 633 402 659 405 6 1 72 -81 148 -182z"/>
</g>
</svg>
